<?xml version="1.0" encoding="iso-8859-1"?>
<!-- Generator: Adobe Illustrator 0.0.0 SVG Export Plug-In . SVG Version: 0.00 Build 0)  -->
<svg version="1.1" id="Layer_1" xmlns="http://www.w3.org/2000/svg" xmlns:xlink="http://www.w3.org/1999/xlink" x="0px" y="0px"
	 viewBox="0 0 175.748 63.009" style="enable-background:new 0 0 175.748 63.009;" xml:space="preserve">
<g id="Gruppe_5">
	<g id="Gruppe_4" transform="translate(0 0)">
		<g transform="matrix(1, 0, 0, 1, 0, 0)">
			<path id="Pfad_2-2_00000137839853828671971010000001270594400764807829_" d="M165.628,38.304v-0.027
				c3.553-0.678,5.613-2.711,5.613-5.613c0-3.904-2.982-6.155-8.188-6.155h-12.031l-11.393-10.913l11.184-9.635l5.129-2.03V3.773
				h-11.833v0.158l3.973,1.855l-10.753,10.947c0-3.921,0.105-7.715,0.315-10.913l4.412-1.855V3.773h-12.692v0.192l4.481,1.891
				c0.234,2.952,0.35,6.799,0.35,11.07c0,2.638-0.044,5.718-0.133,7.836h3.39c-0.082-2.188-0.123-5.256-0.123-7.801l9.393,9.862
				v19.101h7.077v-6.452h4.149c1.305-0.019,2.534,0.611,3.28,1.682l1.22,2.033c1.105,2.01,3.211,3.264,5.504,3.281
				c1.78,0.014,3.517-0.538,4.962-1.577l-1.193-2.847c-0.38,0.384-0.894,0.607-1.434,0.624c-0.632,0.026-1.231-0.283-1.577-0.813
				l-1.382-2.088c-0.401-0.656-0.999-1.168-1.709-1.464 M164.154,33.096c0,1.491-1.193,2.386-3.227,2.386h-7.132v-4.8h7.132
				c2.033,0,3.227,0.895,3.227,2.413 M121.209,5.824l4.412-1.776V3.862h-12.692v0.185l4.481,1.809
				c0.234,2.827,0.35,9.434,0.35,13.525c0,1.67-0.022,3.926-0.06,5.377h3.25c-0.037-1.481-0.057-3.738-0.057-5.377
				c0-3.871,0.105-10.497,0.315-13.558 M109.693,24.758c0.467-1.055,0.701-2.199,0.685-3.354c0.028-1.064-0.168-2.123-0.574-3.107
				c-0.331-0.796-0.869-1.49-1.559-2.007c-0.686-0.489-1.441-0.873-2.241-1.138c-0.864-0.291-1.756-0.493-2.661-0.604
				c-0.934-0.117-1.867-0.216-2.8-0.297c-0.933-0.081-1.82-0.195-2.661-0.341c-0.765-0.125-1.516-0.328-2.241-0.604
				c-0.629-0.237-1.172-0.658-1.559-1.207c-0.401-0.606-0.601-1.323-0.574-2.049c-0.003-0.869,0.34-1.704,0.954-2.32
				c0.692-0.706,1.545-1.231,2.486-1.531c1.075-0.359,2.202-0.536,3.335-0.525c0.757-0.002,1.513,0.065,2.258,0.201
				c0.747,0.143,1.471,0.387,2.151,0.727c0.685,0.331,1.309,0.775,1.847,1.313c0.562,0.586,0.994,1.284,1.271,2.047
				c0.334,0.918,0.498,1.89,0.482,2.868h0.287V5.531c-0.929-0.867-2.034-1.523-3.239-1.926c-1.506-0.533-3.094-0.794-4.691-0.77
				c-1.424-0.012-2.833,0.296-4.122,0.902c-1.244,0.582-2.309,1.489-3.081,2.625c-0.79,1.157-1.203,2.529-1.181,3.93
				c-0.029,1.13,0.166,2.254,0.574,3.308c0.32,0.833,0.854,1.567,1.548,2.126c0.677,0.511,1.43,0.913,2.232,1.19
				c0.859,0.302,1.748,0.507,2.652,0.612c0.928,0.111,1.859,0.206,2.792,0.287c0.933,0.08,1.82,0.183,2.661,0.307
				c0.763,0.107,1.512,0.299,2.232,0.574c0.625,0.239,1.165,0.659,1.55,1.207c0.404,0.618,0.604,1.346,0.574,2.083
				c0.024,1.075-0.453,2.101-1.29,2.776L109.693,24.758z M92.326,18.322h-0.287v6.441h3.967c-0.402-0.207-0.785-0.447-1.147-0.717
				c-0.812-0.622-1.455-1.438-1.873-2.371c-0.466-1.055-0.696-2.199-0.674-3.352 M84.262,5.925l4.412-1.855V3.878h-10.66V4.07
				l4.482,1.891c0.245,3.104,0.367,9.995,0.367,14.116v1.96c0.142,2.467-0.538,4.911-1.934,6.95
				c-1.068,1.392-2.669,2.275-4.416,2.437v1.729c1.975-0.218,3.794-1.178,5.09-2.684c1.552-1.902,2.329-4.715,2.329-8.438v-1.96
				c0-3.871,0.11-10.778,0.333-14.15 M85.487,26.506l-9.681,19.415h7.321l1.491-3.389h9.681l1.518,3.389h7.348l-9.463-19.415H85.487
				z M86.002,38.55l3.471-7.674h0.054l3.417,7.674H86.002z M54.298,45.925h20.744v-4.393H61.158v-3.61h12.529v-3.769H61.158v-3.255
				h13.612v-4.393H54.298V45.925z M67.266,5.922l4.412-1.855V3.875H58.986v0.192l4.482,1.891c0.234,2.952,0.35,9.844,0.35,14.116
				v1.891c-0.002,0.937,0.072,1.872,0.222,2.797h3.182c-0.186-0.993-0.276-2.001-0.27-3.011v-1.68c0-4.049,0.105-10.953,0.315-14.15
				 M53.216,4.615c0.889-0.393,1.856-0.582,2.827-0.552V3.871h-7.124L38.661,26.633L28.194,3.871h-7.312v0.192
				c1.075-0.029,2.134,0.261,3.045,0.832c0.999,0.718,1.819,1.655,2.399,2.74v9.155c0,2.516-0.05,5.782-0.133,7.969h1.349
				c-0.088-2.108-0.13-5.374-0.13-7.969V9.752l10.065,20.89h0.175L47.84,10.049v6.739c0,2.601-0.044,5.879-0.13,7.969h3.394
				c-0.089-2.073-0.143-4.588-0.143-6.595v-1.379l0.105-10.188c0.541-0.835,1.285-1.518,2.162-1.987 M25.043,26.496H2.835v4.99
				h7.566v14.425h7.077V31.498h7.565V26.496z M18.353,49.723l-5.116,10.161h3.524l0.853-1.847h5.286l0.86,1.847h3.51l-5.003-10.161
				H18.353z M18.324,56.062l1.947-4.192H20.3l1.904,4.192H18.324z M33.468,49.723h-4.079v10.161h3.197v-6.991H32.6l5.798,6.991
				h4.079V49.723h-3.202v6.935h-0.014L33.468,49.723z M33.349,38.177h10.71v7.728h7.077V26.509h-7.077v6.882h-10.71v-6.882h-7.077
				v19.415h7.077V38.177z M60.152,49.723H53.06v10.161h7.092c1.132,0.031,2.258-0.17,3.311-0.589
				c0.853-0.345,1.578-0.946,2.075-1.721c0.496-0.832,0.745-1.789,0.717-2.757c0.085-1.433-0.501-2.825-1.584-3.767
				c-1.301-0.958-2.899-1.427-4.512-1.322 M59.703,52.06c0.86-0.054,1.712,0.2,2.402,0.717c0.583,0.511,0.893,1.266,0.839,2.039
				c0.035,0.523-0.092,1.044-0.363,1.493c-0.27,0.415-0.659,0.739-1.115,0.931c-0.559,0.227-1.159,0.336-1.762,0.32h-3.339v-5.5
				L59.703,52.06z M79.577,49.729H69.004V59.89h10.715v-2.161h-7.433V55.64h6.722v-1.864h-6.722v-1.89h7.291V49.729z M90.904,49.729
				h-8.385V59.89h3.382v-3.467h2.558c0.332-0.004,0.66,0.077,0.952,0.235c0.292,0.164,0.54,0.396,0.724,0.675l0.682,1.207
				c0.197,0.297,0.421,0.575,0.668,0.832c0.247,0.245,0.539,0.439,0.86,0.574c0.376,0.158,0.78,0.235,1.187,0.228
				c0.474-0.002,0.945-0.083,1.392-0.241c0.406-0.129,0.783-0.336,1.108-0.611l-0.64-1.407c-0.095,0.124-0.22,0.223-0.363,0.287
				c-0.131,0.062-0.274,0.096-0.419,0.099c-0.158,0.005-0.315-0.031-0.455-0.106c-0.137-0.086-0.25-0.206-0.327-0.348l-0.753-1.166
				c-0.103-0.195-0.24-0.371-0.404-0.519c-0.148-0.132-0.319-0.236-0.505-0.305v-0.014c0.558-0.084,1.096-0.271,1.584-0.553
				c0.416-0.242,0.761-0.588,1.004-1.004c0.233-0.412,0.354-0.878,0.348-1.351c0.016-0.61-0.155-1.211-0.49-1.721
				c-0.358-0.503-0.862-0.884-1.442-1.094c-0.728-0.267-1.499-0.395-2.274-0.377 M89.932,51.804
				c0.329-0.008,0.657,0.045,0.966,0.156c0.245,0.089,0.458,0.25,0.611,0.462c0.143,0.206,0.218,0.453,0.214,0.704
				c0.008,0.259-0.07,0.514-0.221,0.725c-0.159,0.208-0.377,0.364-0.625,0.447c-0.304,0.103-0.624,0.152-0.945,0.143h-4.036v-2.642
				L89.932,51.804z M114.694,45.925V31.498h7.565v-4.99h-22.208v4.99h7.565v14.425L114.694,45.925z M107.207,49.743h-3.441
				l4.433,10.161h3.851l3.127-7.489h0.014l3.098,7.489h3.871l4.42-10.161h-3.441l-3.011,7.503h-0.029l-3-7.503h-3.823l-2.984,7.503
				h-0.014L107.207,49.743z M132.058,49.743h-3.368v10.161h3.368V49.743z M130.349,41.532v-3.61h12.529v-3.769h-12.529v-3.255
				h13.612v-4.393h-20.473v19.415h20.744v-4.393L130.349,41.532z M145.781,49.743h-10.573v10.161h10.715v-2.161h-7.433v-2.089h6.722
				v-1.864h-6.722v-1.89h7.291V49.743z M152.807,49.743h-4.079v10.161h3.197v-6.991h0.014l5.798,6.991h4.079V49.743h-3.197v6.935
				h-0.014L152.807,49.743z"/>
		</g>
	</g>
</g>
</svg>
