<?xml version="1.0" encoding="UTF-8"?>
<svg xmlns="http://www.w3.org/2000/svg" viewBox="0 0 310 327">
  <defs>
    <style>
      .cls-1 { fill: #142F30; }
      .cls-bars { fill: #45C8A6; }
    </style>
  </defs>
  <g>
    <g>
      <path class="cls-bars" d="M62.36,121.18c-5.79,0-10.48,4.69-10.48,10.47v41.89c0,5.78,4.69,10.47,10.48,10.47s10.48-4.69,10.48-10.47v-41.89c0-5.78-4.69-10.47-10.48-10.47Z"/>
      <path class="cls-bars" d="M103.27,101.23c-5.79,0-10.48,4.69-10.48,10.47v54.86c0,5.78,4.69,10.47,10.48,10.47s10.48-4.69,10.48-10.47v-54.86c0-5.78-4.69-10.47-10.48-10.47Z"/>
      <path class="cls-bars" d="M103.27,184.02c-5.79,0-10.48,4.69-10.48,10.47v19.95c0,5.78,4.69,10.47,10.48,10.47s10.48-4.69,10.48-10.47v-19.95c0-5.78-4.69-10.47-10.48-10.47Z"/>
      <path class="cls-bars" d="M144.19,63.33c-5.79,0-10.48,4.69-10.48,10.47v82.78c0,5.78,4.69,10.47,10.48,10.47s10.48-4.69,10.48-10.47v-82.78c0-5.78-4.69-10.47-10.48-10.47Z"/>
      <path class="cls-bars" d="M144.19,177.04c-5.79,0-10.48,4.69-10.48,10.47v65.83c0,5.78,4.69,10.47,10.48,10.47s10.48-4.69,10.48-10.47v-65.83c0-5.78-4.69-10.47-10.48-10.47Z"/>
      <path class="cls-bars" d="M185.1,97.25c-5.79,0-10.48,4.69-10.48,10.47v41.89c0,5.78,4.69,10.47,10.48,10.47s10.48-4.69,10.48-10.47v-41.89c0-5.78-4.69-10.47-10.48-10.47Z"/>
      <path class="cls-bars" d="M185.1,169.06c-5.79,0-10.48,4.69-10.48,10.47v46.88c0,5.78,4.69,10.47,10.48,10.47s10.48-4.69,10.48-10.47v-46.88c0-5.78-4.69-10.47-10.48-10.47Z"/>
      <path class="cls-bars" d="M226.01,127.17c-5.79,0-10.48,4.69-10.48,10.47v6.98c0,5.78,4.69,10.47,10.48,10.47s10.48-4.69,10.48-10.47v-6.98c0-5.78-4.69-10.47-10.48-10.47Z"/>
      <path class="cls-bars" d="M226.01,161.08c-5.79,0-10.48,4.69-10.48,10.47v24.93c0,5.78,4.69,10.47,10.48,10.47s10.48-4.69,10.48-10.47v-24.93c0-5.78-4.69-10.47-10.48-10.47Z"/>
      <path class="cls-bars" d="M264.92,152.1c-5.79,0-10.48,4.69-10.48,10.47v19.95c0,5.78,4.69,10.47,10.48,10.47s10.48-4.69,10.48-10.47v-19.95c0-5.78-4.69-10.47-10.48-10.47Z"/>
    </g>
    <path class="cls-1" d="M288.85,233.96c-25.15,44.53-73.39,74.38-128.36,73.2-77.34-1.66-139.88-65.04-140.54-142.35C19.29,85.05,84,19.95,163.64,19.95c53.63,0,100.48,29.52,125.16,73.15,3.25,5.74,11.06,6.82,15.73,2.15h0c3.17-3.17,3.84-8.06,1.64-11.95C277.57,32.74,222.82-1.18,160.41.03,73.5,1.72,2.59,71.89.07,158.74c-2.68,92.39,71.73,168.4,163.57,168.4,61.06,0,114.4-33.6,142.52-83.27,2.21-3.91,1.55-8.81-1.62-11.98h0c-4.64-4.64-12.46-3.64-15.69,2.07Z"/>
  </g>
</svg>