<?xml version="1.0" encoding="UTF-8"?>
<svg id="Layer_1" data-name="Layer 1" xmlns="http://www.w3.org/2000/svg" viewBox="0 0 1244.71 327.14">
  <defs>
    <style>
      .cls-1 { fill: #142F30; }
      .cls-bars { fill: #45C8A6; }
    </style>
  </defs>
  <g>
    <path class="cls-1" d="M387.86,165.7c0-6.58,1.18-13.13,3.55-19.65,2.36-6.52,5.83-12.38,10.41-17.57,4.57-5.19,10.15-9.38,16.73-12.56,6.58-3.18,14.03-4.78,22.36-4.78,9.97,0,18.51,2.21,25.6,6.63,7.09,4.42,12.44,10.17,16.04,17.26l-13.57,9.1c-1.54-3.29-3.39-6.06-5.55-8.32-2.16-2.26-4.53-4.06-7.09-5.4-2.57-1.33-5.24-2.29-8.02-2.85-2.78-.56-5.45-.85-8.02-.85-5.76,0-10.8,1.16-15.11,3.47-4.32,2.31-7.94,5.37-10.87,9.17-2.93,3.8-5.14,8.07-6.63,12.79-1.49,4.73-2.24,9.46-2.24,14.18,0,5.35.87,10.43,2.62,15.26,1.75,4.83,4.19,9.1,7.33,12.8,3.14,3.7,6.86,6.66,11.18,8.86,4.32,2.21,9.05,3.31,14.19,3.31,2.67,0,5.42-.33,8.25-1,2.83-.67,5.55-1.75,8.17-3.24,2.62-1.49,5.04-3.36,7.25-5.63,2.21-2.26,4.03-4.98,5.47-8.17l14.34,8.17c-1.75,4.11-4.22,7.73-7.4,10.87-3.19,3.14-6.79,5.78-10.8,7.94-4.01,2.16-8.25,3.8-12.72,4.93-4.47,1.13-8.87,1.7-13.19,1.7-7.71,0-14.75-1.64-21.13-4.93-6.38-3.29-11.87-7.58-16.5-12.87-4.63-5.29-8.23-11.3-10.8-18.04-2.57-6.73-3.86-13.59-3.86-20.58Z"/>
    <path class="cls-1" d="M624.36,146.35c-2.52-6.63-6.07-12.56-10.64-17.8-4.58-5.24-10.08-9.48-16.5-12.72-6.43-3.24-13.55-4.86-21.36-4.86s-14.63,1.52-21.05,4.55c-6.43,3.03-11.98,7.12-16.66,12.26-4.68,5.14-8.35,11.05-11.03,17.73-2.67,6.68-4.01,13.67-4.01,20.96s1.26,13.82,3.78,20.5c2.52,6.68,6.09,12.62,10.72,17.8,4.63,5.19,10.15,9.35,16.58,12.49,6.42,3.14,13.55,4.7,21.36,4.7s14.47-1.52,20.9-4.55c6.42-3.03,12-7.09,16.73-12.18,4.73-5.09,8.41-10.97,11.03-17.65,2.62-6.68,3.93-13.67,3.93-20.96,0-6.88-1.26-13.64-3.78-20.27ZM608.09,180.96c-1.54,4.73-3.8,8.99-6.79,12.79-2.98,3.8-6.61,6.86-10.87,9.17-4.27,2.31-9.18,3.47-14.73,3.47s-10.18-1.1-14.5-3.31c-4.32-2.21-8-5.16-11.03-8.86-3.03-3.7-5.37-7.96-7.02-12.79-1.65-4.83-2.47-9.81-2.47-14.95s.8-9.79,2.39-14.57c1.59-4.78,3.88-9.02,6.86-12.72,2.98-3.7,6.63-6.71,10.95-9.02,4.32-2.31,9.25-3.47,14.81-3.47,5.24,0,10,1.11,14.27,3.31,4.26,2.21,7.92,5.14,10.95,8.79,3.03,3.65,5.37,7.86,7.02,12.64,1.64,4.78,2.47,9.79,2.47,15.03,0,4.93-.77,9.77-2.31,14.49Z"/>
    <path class="cls-1" d="M722.52,206.4c5.76,0,10.54-1.13,14.34-3.39,3.8-2.26,6.86-5.21,9.18-8.86,2.31-3.65,3.96-7.81,4.94-12.49.98-4.68,1.47-9.48,1.47-14.41v-55.5h17.43v55.5c0,7.5-.87,14.57-2.62,21.2-1.75,6.63-4.53,12.44-8.33,17.42-3.8,4.99-8.71,8.92-14.73,11.79-6.01,2.88-13.24,4.32-21.67,4.32s-16.12-1.52-22.13-4.55c-6.01-3.03-10.87-7.09-14.57-12.18-3.7-5.09-6.38-10.92-8.02-17.5-1.65-6.58-2.47-13.41-2.47-20.5v-55.5h17.27v55.5c0,5.04.49,9.89,1.46,14.57.98,4.68,2.62,8.84,4.94,12.49,2.31,3.65,5.4,6.58,9.25,8.79,3.86,2.21,8.61,3.31,14.27,3.31Z"/>
    <path class="cls-1" d="M888.46,137.49c-1.03-1.13-2.52-2.34-4.47-3.62-1.95-1.28-4.24-2.49-6.86-3.62-2.62-1.13-5.5-2.05-8.64-2.77-3.14-.72-6.35-1.08-9.64-1.08-7.3,0-12.67,1.34-16.12,4.01-3.45,2.67-5.17,6.37-5.17,11.1,0,2.67.54,4.86,1.62,6.55,1.08,1.7,2.75,3.19,5.01,4.47,2.26,1.29,5.09,2.42,8.48,3.39,3.39.98,7.35,2.03,11.87,3.16,5.55,1.34,10.56,2.83,15.04,4.47,4.47,1.64,8.25,3.65,11.34,6.01,3.08,2.37,5.48,5.27,7.17,8.71,1.7,3.44,2.54,7.63,2.54,12.56,0,5.55-1.06,10.33-3.16,14.34-2.11,4.01-4.99,7.27-8.64,9.79-3.65,2.52-7.89,4.37-12.72,5.55-4.83,1.18-10.02,1.77-15.58,1.77-8.33,0-16.37-1.26-24.14-3.78-7.76-2.52-14.78-6.19-21.05-11.02l7.87-14.8c1.34,1.34,3.26,2.83,5.78,4.47,2.52,1.64,5.45,3.16,8.79,4.55,3.34,1.39,6.96,2.57,10.87,3.55,3.91.98,7.97,1.46,12.18,1.46,6.79,0,12.03-1.18,15.73-3.55,3.7-2.36,5.55-5.86,5.55-10.48,0-2.77-.69-5.09-2.08-6.94s-3.37-3.47-5.94-4.86c-2.57-1.39-5.71-2.64-9.41-3.78-3.7-1.13-7.92-2.31-12.65-3.55-5.45-1.44-10.21-2.95-14.27-4.55-4.06-1.59-7.43-3.52-10.1-5.78-2.67-2.26-4.7-4.91-6.09-7.94-1.39-3.03-2.08-6.71-2.08-11.02,0-5.34,1.03-10.1,3.08-14.26,2.06-4.16,4.86-7.65,8.4-10.48,3.55-2.82,7.74-4.96,12.57-6.4,4.83-1.44,10.08-2.16,15.73-2.16,7.4,0,14.24,1.18,20.51,3.55,6.27,2.37,11.77,5.29,16.5,8.79l-7.86,14.18Z"/>
    <polygon class="cls-1" points="1028.34 127.01 991.95 127.01 991.95 221.2 974.52 221.2 974.52 127.01 937.97 127.01 937.97 111.75 1028.34 111.75 1028.34 127.01"/>
    <rect class="cls-1" x="1073.84" y="111.75" width="17.27" height="109.45"/>
    <path class="cls-1" d="M1240.85,187.36c2.57-6.52,3.86-13.43,3.86-20.73,0-6.88-1.26-13.64-3.78-20.27-2.52-6.63-6.07-12.57-10.64-17.81-4.57-5.24-10.08-9.48-16.5-12.72-6.43-3.24-13.55-4.85-21.36-4.85s-14.63,1.52-21.05,4.54c-6.42,3.03-11.98,7.12-16.65,12.26-4.68,5.14-8.36,11.05-11.03,17.72-2.68,6.68-4.01,13.67-4.01,20.97s1.25,13.82,3.78,20.5c2.52,6.68,6.09,12.59,10.72,17.73,4.63,5.14,10.15,9.3,16.58,12.49,6.43,3.18,13.55,4.78,21.36,4.78,5.34,0,10.41-.77,15.19-2.31,1.16-.37,2.31-.79,3.43-1.24l-11.32-12.77c-2.27.5-4.66.75-7.15.75-5.35,0-10.18-1.11-14.5-3.32-4.32-2.2-7.99-5.16-11.03-8.86-3.03-3.7-5.37-7.97-7.01-12.8-1.65-4.83-2.47-9.82-2.47-14.95s.79-9.79,2.39-14.57c1.59-4.78,3.88-9.04,6.87-12.8,2.98-3.75,6.63-6.78,10.95-9.09,4.32-2.32,9.25-3.47,14.81-3.47,5.24,0,10,1.11,14.26,3.31,4.27,2.22,7.92,5.17,10.95,8.86,3.03,3.7,5.37,7.94,7.02,12.72,1.64,4.78,2.47,9.79,2.47,15.03,0,4.62-.67,9.17-2.01,13.64-1.34,4.47-3.34,8.5-6.02,12.1l-7.87-9.1h-16.65l12.66,14.67,20.74,23.41h16.56l-14.34-16.34c4.63-5.14,8.23-10.96,10.79-17.5Z"/>
  </g>
  <g>
    <g>
      <path class="cls-bars" d="M62.36,121.18c-5.79,0-10.48,4.69-10.48,10.47v41.89c0,5.78,4.69,10.47,10.48,10.47s10.48-4.69,10.48-10.47v-41.89c0-5.78-4.69-10.47-10.48-10.47Z"/>
      <path class="cls-bars" d="M103.27,101.23c-5.79,0-10.48,4.69-10.48,10.47v54.86c0,5.78,4.69,10.47,10.48,10.47s10.48-4.69,10.48-10.47v-54.86c0-5.78-4.69-10.47-10.48-10.47Z"/>
      <path class="cls-bars" d="M103.27,184.02c-5.79,0-10.48,4.69-10.48,10.47v19.95c0,5.78,4.69,10.47,10.48,10.47s10.48-4.69,10.48-10.47v-19.95c0-5.78-4.69-10.47-10.48-10.47Z"/>
      <path class="cls-bars" d="M144.19,63.33c-5.79,0-10.48,4.69-10.48,10.47v82.78c0,5.78,4.69,10.47,10.48,10.47s10.48-4.69,10.48-10.47v-82.78c0-5.78-4.69-10.47-10.48-10.47Z"/>
      <path class="cls-bars" d="M144.19,177.04c-5.79,0-10.48,4.69-10.48,10.47v65.83c0,5.78,4.69,10.47,10.48,10.47s10.48-4.69,10.48-10.47v-65.83c0-5.78-4.69-10.47-10.48-10.47Z"/>
      <path class="cls-bars" d="M185.1,97.25c-5.79,0-10.48,4.69-10.48,10.47v41.89c0,5.78,4.69,10.47,10.48,10.47s10.48-4.69,10.48-10.47v-41.89c0-5.78-4.69-10.47-10.48-10.47Z"/>
      <path class="cls-bars" d="M185.1,169.06c-5.79,0-10.48,4.69-10.48,10.47v46.88c0,5.78,4.69,10.47,10.48,10.47s10.48-4.69,10.48-10.47v-46.88c0-5.78-4.69-10.47-10.48-10.47Z"/>
      <path class="cls-bars" d="M226.01,127.17c-5.79,0-10.48,4.69-10.48,10.47v6.98c0,5.78,4.69,10.47,10.48,10.47s10.48-4.69,10.48-10.47v-6.98c0-5.78-4.69-10.47-10.48-10.47Z"/>
      <path class="cls-bars" d="M226.01,161.08c-5.79,0-10.48,4.69-10.48,10.47v24.93c0,5.78,4.69,10.47,10.48,10.47s10.48-4.69,10.48-10.47v-24.93c0-5.78-4.69-10.47-10.48-10.47Z"/>
      <path class="cls-bars" d="M264.92,152.1c-5.79,0-10.48,4.69-10.48,10.47v19.95c0,5.78,4.69,10.47,10.48,10.47s10.48-4.69,10.48-10.47v-19.95c0-5.78-4.69-10.47-10.48-10.47Z"/>
    </g>
    <path class="cls-1" d="M288.85,233.96c-25.15,44.53-73.39,74.38-128.36,73.2-77.34-1.66-139.88-65.04-140.54-142.35C19.29,85.05,84,19.95,163.64,19.95c53.63,0,100.48,29.52,125.16,73.15,3.25,5.74,11.06,6.82,15.73,2.15h0c3.17-3.17,3.84-8.06,1.64-11.95C277.57,32.74,222.82-1.18,160.41.03,73.5,1.72,2.59,71.89.07,158.74c-2.68,92.39,71.73,168.4,163.57,168.4,61.06,0,114.4-33.6,142.52-83.27,2.21-3.91,1.55-8.81-1.62-11.98h0c-4.64-4.64-12.46-3.64-15.69,2.07Z"/>
  </g>
</svg>